<?xml version="1.0" encoding="UTF-8"?>
<svg xmlns="http://www.w3.org/2000/svg" xmlns:xlink="http://www.w3.org/1999/xlink" viewBox="0 0 407.87 249.98">
  <defs>
    <style>
      .cls-1 {
        fill: #cdbf90;
      }

      .cls-2 {
        mix-blend-mode: screen;
      }

      .cls-2, .cls-3, .cls-4 {
        fill: #83ae3f;
      }

      .cls-5 {
        isolation: isolate;
      }

      .cls-6 {
        fill: #5b5901;
      }

      .cls-7 {
        fill: #f6edd1;
      }

      .cls-8 {
        fill: #4d6f24;
      }

      .cls-9 {
        fill: #a8a47f;
      }

      .cls-10 {
        opacity: .5;
      }

      .cls-10, .cls-11, .cls-4 {
        mix-blend-mode: multiply;
      }

      .cls-12 {
        clip-path: url(#clippath);
      }

      .cls-13 {
        fill: none;
      }

      .cls-11 {
        fill: #d6d5c8;
        opacity: .36;
      }

      .cls-14 {
        fill: #7a6c34;
      }

      .cls-15 {
        fill: #e0d5af;
      }
    </style>
    <clipPath id="clippath">
      <polygon class="cls-13" points="109.76 0 226.35 61.84 211.81 167.45 90.23 150.64 109.76 0"/>
    </clipPath>
  </defs>
  <g class="cls-5">
    <g id="Layer_2" data-name="Layer 2">
      <g id="Layer_1-2" data-name="Layer 1">
        <g>
          <g>
            <path class="cls-6" d="m60.8,207.58c-2.63-1.69-5.54-3.04-8.73-4.05-3.19-1.02-6.38-1.86-9.57-2.54-3.19-.67-6.12-1.33-8.79-1.97-2.67-.64-4.81-1.46-6.42-2.48-1.62-1.01-2.42-2.38-2.42-4.11,0-1.35.41-2.55,1.24-3.6.83-1.05,2.18-1.89,4.05-2.53,1.88-.64,4.35-.96,7.43-.96,3.45,0,7.02.51,10.7,1.52,3.68,1.01,7.39,2.53,11.15,4.56l6.87-16.56c-3.9-2.25-8.35-3.96-13.35-5.12-4.99-1.16-10.08-1.75-15.26-1.75-7.73,0-14.19,1.17-19.37,3.49-5.18,2.33-9.07,5.41-11.66,9.24-2.59,3.83-3.89,8.11-3.89,12.84,0,4.21.83,7.68,2.48,10.42,1.65,2.74,3.79,4.96,6.42,6.65,2.63,1.69,5.54,3.06,8.73,4.11,3.19,1.05,6.38,1.92,9.57,2.59,3.19.67,6.1,1.35,8.73,2.03,2.63.68,4.77,1.54,6.42,2.59,1.65,1.05,2.48,2.48,2.48,4.28,0,1.28-.43,2.38-1.29,3.32-.86.94-2.24,1.69-4.11,2.25-1.88.56-4.36.85-7.43.85-4.58,0-9.18-.73-13.8-2.2-4.62-1.46-8.69-3.32-12.22-5.58l-7.32,16.44c3.75,2.55,8.62,4.64,14.59,6.25,5.97,1.62,12.18,2.42,18.64,2.42,7.81,0,14.28-1.16,19.43-3.49,5.14-2.33,9.01-5.42,11.6-9.29,2.59-3.87,3.89-8.09,3.89-12.67,0-4.13-.81-7.56-2.42-10.31-1.62-2.74-3.74-4.96-6.36-6.65Z"/>
            <path class="cls-6" d="m103.85,210.93c-3.21-.83-12.24-3.88-13-14.09,0,0,.66-8.86,13.29-11.52,4.15-.87,20.13.47,39.74,2.67-.65-1.71-1.45-3.34-2.44-4.86-2.85-4.39-6.89-7.75-12.11-10.08-5.22-2.33-11.43-3.49-18.64-3.49h-36.04v78.84h22.3v-20.61h-9.91l9.91-9.69v9.69h13.74c7.21,0,13.42-1.18,18.64-3.55,5.22-2.37,9.25-5.73,12.11-10.08.68-1.04,1.27-2.12,1.79-3.25-21.59-.16-38.52-.2-39.39.01Z"/>
            <polygon class="cls-6" points="87.04 227.79 96.95 227.79 96.95 218.11 87.04 227.79"/>
            <path class="cls-6" d="m183.85,188.04c2.59-1.05,5.39-1.58,8.39-1.58s5.8.53,8.39,1.58c2.59,1.05,4.84,2.57,6.76,4.56,1.12,1.16,2.07,2.46,2.91,3.88,10.96,1.51,19.88,2.78,24.8,3.49-.55-2.54-1.33-4.99-2.36-7.32-2.22-4.96-5.28-9.29-9.18-13.01-3.9-3.72-8.5-6.59-13.8-8.62-5.29-2.03-11.13-3.04-17.51-3.04s-12.13,1.01-17.46,3.04c-5.33,2.03-9.97,4.9-13.91,8.62-2.97,2.8-5.44,5.95-7.4,9.46,7.87.93,16.07,1.96,24.15,3,1.8-1.74,3.87-3.11,6.23-4.07Z"/>
            <path class="cls-6" d="m211.89,218.22c-1.09,2.78-2.59,5.16-4.5,7.15-1.92,1.99-4.17,3.51-6.76,4.56-2.59,1.05-5.39,1.58-8.39,1.58s-5.8-.52-8.39-1.58c-2.59-1.05-4.84-2.57-6.76-4.56-1.92-1.99-3.42-4.37-4.51-7.15-.85-2.17-1.36-4.53-1.54-7.07-7.64-.07-15.28-.14-22.52-.2.22,5.16,1.24,9.97,3.17,14.36,2.18,4.96,5.24,9.29,9.18,13.01,3.94,3.72,8.58,6.59,13.91,8.62,5.33,2.03,11.15,3.04,17.46,3.04s12.22-1.01,17.51-3.04c5.29-2.03,9.89-4.88,13.8-8.56,3.9-3.68,6.96-8.01,9.18-13.01,1.84-4.15,2.87-8.65,3.18-13.46-3.96-.07-12.11-.18-22.51-.31-.21,2.37-.71,4.57-1.51,6.61Z"/>
            <path class="cls-6" d="m313.65,179.65c-3.9-3.72-8.5-6.59-13.8-8.62-5.29-2.03-11.13-3.04-17.51-3.04s-12.13,1.01-17.46,3.04c-5.34,2.03-9.97,4.9-13.91,8.62-3.94,3.72-7,8.05-9.18,13.01-.73,1.66-1.29,3.4-1.78,5.17,1.2-3.51,4.06-9.37,10.27-11.37,9.27-2.96,7.94-2.13,17.83-2.39,9.8-.26,31.63,7.26,39.6,14.57,7.98,7.31,6.48,12.07,6.15,14.9-1.27,6.59-18.44,17.34-38.16,17.98-13.29,1.02-13.7.26-23.68-2.41-8.1-2.17-11.95-9.8-13.11-14.46.48,3.77,1.41,7.35,2.87,10.68,2.18,4.96,5.24,9.29,9.18,13.01,3.94,3.72,8.58,6.59,13.91,8.62,5.33,2.03,11.15,3.04,17.46,3.04s12.22-1.01,17.51-3.04c5.29-2.03,9.89-4.88,13.8-8.56,3.9-3.68,6.97-8.01,9.18-13.01,2.21-4.99,3.32-10.46,3.32-16.39s-1.11-11.38-3.32-16.33c-2.22-4.96-5.28-9.29-9.18-13.01Z"/>
            <polygon class="cls-6" points="394.52 222.05 385.85 211.58 385.85 222.05 394.52 222.05"/>
            <polygon class="cls-6" points="345.86 195.92 354.54 206.39 354.54 195.92 345.86 195.92"/>
            <polyline class="cls-6" points="385.85 211.58 351.05 169.57 332.69 169.57 332.69 248.41 354.54 248.41 354.54 206.39 345.86 195.92 354.54 195.92 354.54 206.39 389.34 248.41 407.7 248.41 407.7 169.57 385.85 169.57 385.85 211.58"/>
          </g>
          <g class="cls-12">
            <g>
              <g>
                <path class="cls-14" d="m172.64,143.87c-2.17-2.53-5.32-3-8.06-4.23-.64-.29-1.6.36-1.89,1.09-1.5-.28-3.01-.54-4.54-.7-1.61-.16-3.23-.28-4.85-.38-.16-.24-.32-.48-.47-.74-.52-.91-1.87-.35-2.24.59-.14,0-.29-.01-.43-.02-.06-.08-.11-.15-.16-.23-.28-.42-.8-.37-1.27-.09-.09-.11-.18-.22-.27-.33-.04-1.36-1.65-.67-2.09.19-.05.11-.11.21-.17.31-.16,0-.32-.01-.47-.02-.1-.14-.26-.23-.44-.27,0,0,0,0,0,0,.18-.33-.23-.44-.4-.31-.22.16-.44.33-.65.51-.74-.05-1.48-.11-2.21-.2-.17-.2-.44-.28-.79-.12-.16-.03-.32-.05-.49-.08-.49-.09-.97-.17-1.46-.23.5-.46.97-.98,1.39-1.57.34-.48-.24-.65-.52-.4-.88.78-1.79,1.39-2.74,1.87-.28.01-.56.03-.85.07-1.38.2-2.73.66-4.09,1-.22.06-.55.23-.86.48-1.15.11-2.3.14-3.45.15-.68,0-1.56,1.29-.76,1.81,2.42,1.59,5.63,1.92,8.66,1.25-.08.09-.17.19-.25.28-.38.46-.26,1.36.32,1.37,1.43.03,3.01-.35,4.54-1.03-.13.23-.26.46-.38.69-.33.62.18,1.23.68,1.11,1.99-.45,3.73-1.59,5.19-3.21.11,2.08.73,3.96,2.82,3.26.3-.1.75-.56.84-1.01.55.82,1.15,1.57,1.84,2.2.62.58,2.37-.42,2-1.43.96.41,1.93.78,2.9,1.18.79.33,2.78-1.19,1.84-2.11.02,0,.05.02.07.03,2.16.73,4.41,1.17,6.65,1.47.58.08,1.89-.97,1.3-1.73,1.57.61,3.15,1.18,4.77,1.62.77.21,2.21-1.21,1.43-2.11Z"/>
                <g>
                  <path class="cls-14" d="m140.5,140.24c.02-.48-.83-.6-1.29-.27-1.44,1.02-2.83,1.9-4.5,2.51-1.5.55-3.05.95-4.57,1.42-.59.18-.61.96.1.81,2.26-.46,4.77-.77,6.92-1.73-.51.53-1.04,1.04-1.66,1.42-.57.35-.23,1.05.37.7,1.9-1.09,3.92-2.25,5.13-4.14.28-.44-.1-.69-.5-.73Z"/>
                  <path class="cls-14" d="m146.17,141.58c-.2-.36-1-.04-1.2.28-1.17,1.81-2.44,3.24-4.05,4.66-.56.49.14.95.63.56.85-.66,1.93-1.39,2.84-2.25-.26.79-.48,1.59-.71,2.4-.17.59.9.46,1.05.03.63-1.78,1.93-3.27,2.23-5.17.09-.54-.36-.64-.79-.52Z"/>
                  <path class="cls-14" d="m150.36,147.75c-.29-2.07-.02-4.16.37-6.2.14-.75-1-.47-1.22-.04-1.06,2.13-.61,4.3-.25,6.55.09.6,1.18.21,1.1-.32Z"/>
                  <path class="cls-14" d="m154.78,147.92c-1.05-1.47-1.55-3.12-2.32-4.74-.2-.43-1.13-.03-1,.4.54,1.8,1.4,3.36,2.63,4.78.22.26.9-.15.69-.45Z"/>
                  <path class="cls-14" d="m162.38,148.75c-.95-.81-1.92-1.62-2.76-2.55-.92-1.02-1.36-2.17-2.04-3.32-.25-.42-1.09-.12-1.11.33-.17,2.77,3.4,4.69,5.35,5.99.27.18.87-.2.57-.46Z"/>
                  <path class="cls-14" d="m169.05,149.08c-4.18-1.13-6.6-4.14-9.57-7-.39-.37-1.41.2-1.1.72,2.1,3.56,6.48,5.95,10.42,6.79.3.06.64-.4.25-.51Z"/>
                  <path class="cls-14" d="m172.89,147.99c-4.08-.73-7.2-3.14-10.74-5.08-.45-.25-1.35.42-.89.88,1.42,1.44,3.48,2.39,5.31,3.18,1.92.83,3.98,1.35,6.06,1.53.3.03.68-.45.26-.52Z"/>
                  <path class="cls-14" d="m164.34,148.06c-.66-1.05-1.4-2.05-2.2-3-.79-.95-1.52-2.05-2.58-2.71-.33-.21-1.03.21-.94.61.26,1.18,1.21,2.01,2.05,2.82.97.93,1.98,1.79,2.85,2.81.26.3,1.04-.16.81-.53Z"/>
                  <path class="cls-14" d="m139.08,140.15c-2.17.66-4.19,1.33-6.45,1.67-1.86.28-3.85-.01-5.6.77-.11.05-.19.28-.01.29,2.18.11,4.4.08,6.56-.26,1.96-.31,4.24-.58,5.89-1.75.46-.32.13-.88-.38-.73Z"/>
                  <path class="cls-14" d="m167.27,145.56c-.76-.57-1.48-1.37-2.29-1.81-1.02-.57-2.49-.47-3.62-.55-2.56-.18-5.11-.43-7.67-.59-3.48-.22-6.93-.82-10.39-1.08.32-.43.57-.88.68-1.38.15-.68-.8-.56-1.12-.32-.57.43-1.05.99-1.5,1.59-1.17-.04-2.33-.02-3.51.08-.38.03-.79.6-.26.74.88.23,1.75.47,2.62.7-.08.1-.16.21-.25.3-1.03,1.21-1.98,2.45-2.95,3.71-.37.48.39.66.68.3,1.07-1.34,2.4-2.46,3.62-3.68.09-.09.18-.18.27-.26,3.44.91,6.85,1.71,10.48,2,2.43.2,4.87.36,7.3.43,1.32.03,2.62.05,3.92.23,1.07.15,2.08.43,3.14.62.42.08,1.41-.61.84-1.03Z"/>
                </g>
              </g>
              <g>
                <g>
                  <path class="cls-7" d="m203.84,107.99c-2.14-2.81-4.81-5.18-7.61-7.32-5.68-4.36-12.01-7.92-17.09-13.02-2.95-2.96-5.33-6.42-6.77-10.36-1.64-4.48-2.15-9.29-2.22-14.04-.06-3.81.5-7.58.57-11.38,0-.31,10.99-88.31,16.05-114.02-1.06-.7-2.22-1.25-3.44-1.62-1.2-.37-2.47-.56-3.73-.52-1.24.04-2.48.31-3.61.83-.26.12-.51.25-.75.39-5.18,28.97-19.45,116.38-20.5,120.44-1.22,4.74-2.91,9.38-5.41,13.6-2.52,4.25-5.89,7.94-9.93,10.78-4.52,3.17-9.72,4.98-14.92,6.72-5.4,1.8-10.91,3.56-15.79,6.56-2.21,1.36-4.32,2.94-6,4.93-1.57,1.87-2.8,4.03-3.69,6.31-1.82,4.67-2.36,9.91-1.47,14.84.9,4.99,3.42,9.49,7.36,12.7,2.05,1.67,4.37,2.99,6.76,4.1,2.91,1.36,5.96,2.45,9.13,3.02,2.27.41,4.61.6,6.9.84.19.02.37.04.56.06.77.26,1.55.5,2.33.7,2.29.6,4.65,1,7.02,1.01,1.55,0,3.18-.17,4.62-.77,1.53.7,3.18,1.16,4.82,1.51,2.92.62,6.02.79,8.94.09.32-.08.64-.17.95-.27,1.03.57,2.21.95,3.02,1.19,12.22,3.5,19.04-.41,19.38-.32,7.21,1.79,15.77.84,21.75-3.83,2.19-1.71,3.89-3.85,5.13-6.25,4.3-8.29,3.14-19.67-2.37-26.89Z"/>
                  <path class="cls-9" d="m134.61,143.45c-1.29-.17-2.64-.44-4.07-.81-.79-.21-1.57-.44-2.32-.7-.18-.02-.37-.04-.55-.05-.41-.04-.82-.08-1.23-.12-1.87-.19-3.81-.38-5.68-.71-2.95-.53-5.94-1.52-9.16-3.03-2.74-1.28-4.95-2.63-6.78-4.12-3.85-3.15-6.48-7.68-7.4-12.78-.88-4.9-.36-10.19,1.48-14.91.93-2.39,2.18-4.53,3.71-6.34,1.5-1.78,3.41-3.35,6.03-4.96,4.62-2.84,9.86-4.58,14.92-6.27l.9-.3c5.57-1.86,10.54-3.65,14.89-6.7,4-2.81,7.33-6.43,9.9-10.75,2.27-3.82,4.03-8.26,5.4-13.57.53-2.07,4.46-25.52,9-52.67,4.2-25.13,8.97-53.61,11.5-67.76v-.06s.06-.03.06-.03c.27-.15.52-.28.76-.39,1.13-.51,2.36-.79,3.66-.84,1.24-.04,2.51.13,3.78.52,1.21.37,2.38.92,3.47,1.64l.07.05-.02.08c-4.99,25.38-16.01,113.49-16.05,114-.03,1.69-.16,3.39-.28,5.05-.16,2.07-.32,4.21-.28,6.32.09,5.66.79,10.11,2.22,14,1.36,3.71,3.63,7.18,6.74,10.31,3.33,3.35,7.28,6.08,11.09,8.72,1.99,1.38,4.04,2.8,5.99,4.29,3.35,2.57,5.77,4.9,7.63,7.35,2.7,3.54,4.43,8.2,4.88,13.11.46,4.97-.43,9.91-2.51,13.92-1.3,2.51-3.04,4.63-5.17,6.29-5.56,4.34-13.93,5.82-21.85,3.86-.06,0-.26.08-.47.16-.91.34-3.03,1.15-6.22,1.47-3.96.41-8.24-.03-12.72-1.32-1.18-.34-2.19-.73-2.99-1.17-.31.1-.61.18-.91.25-2.69.64-5.71.61-9-.09-1.92-.41-3.44-.88-4.8-1.49-1.27.52-2.78.77-4.62.76-.96,0-1.95-.07-2.98-.21Zm-6.34-1.76h.01c.75.26,1.53.5,2.32.7,2.56.67,4.84,1,6.99,1.01,1.83,0,3.32-.24,4.57-.76l.05-.02.05.02c1.35.61,2.87,1.09,4.79,1.5,3.25.69,6.24.72,8.89.09.31-.07.62-.16.94-.26l.05-.02.05.03c.8.44,1.8.83,2.99,1.17,6.94,1.99,13.26,1.94,18.77-.15.41-.16.52-.19.61-.17,7.85,1.95,16.14.49,21.64-3.81,2.1-1.64,3.81-3.73,5.1-6.21,2.05-3.96,2.93-8.85,2.48-13.78-.45-4.87-2.17-9.48-4.83-12.98h0c-1.85-2.43-4.26-4.75-7.59-7.3-1.94-1.49-3.99-2.91-5.98-4.29-3.82-2.65-7.77-5.39-11.12-8.75-3.14-3.15-5.43-6.66-6.8-10.4-1.43-3.91-2.14-8.39-2.23-14.08-.03-2.12.13-4.27.29-6.35.12-1.65.25-3.36.28-5.04,0-.36,11-88.26,16.04-113.96-1.05-.68-2.17-1.2-3.33-1.56-1.24-.38-2.48-.55-3.69-.51-1.27.04-2.47.32-3.56.81-.22.1-.45.22-.69.35-2.53,14.17-7.29,42.61-11.49,67.7-4.54,27.15-8.47,50.6-9,52.69-1.37,5.33-3.15,9.79-5.43,13.63-2.58,4.35-5.94,7.99-9.97,10.82-4.37,3.07-9.36,4.86-14.95,6.73l-.9.3c-5.05,1.68-10.27,3.42-14.87,6.24-2.59,1.59-4.49,3.15-5.97,4.91-1.51,1.79-2.74,3.9-3.66,6.27-1.82,4.68-2.34,9.92-1.47,14.77.91,5.03,3.51,9.52,7.31,12.62,1.81,1.48,4.01,2.82,6.73,4.09,3.2,1.5,6.18,2.48,9.1,3.01,1.86.34,3.79.53,5.66.71.41.04.82.08,1.23.12.19.02.37.04.56.06h.01Zm51.04,3.4h0s0,0,0,0Z"/>
                </g>
                <g>
                  <path class="cls-3" d="m150.2,70.05c.96-1.47,1.88-3.01,3.19-4.21.08-.07.18.02.18.1-.05,2.25-1.03,4.35-1.13,6.6.56-.2,1.06-.53,1.49-.95.83-.81,1.39-1.85,2.01-2.81.59-.91,1.26-1.83,2.26-2.33.07-.03.14.02.15.09.16.7.34,1.41.6,2.08.16.4.34.82.63,1.15.32.37.72.45,1.14.21.53-.31.93-.84,1.3-1.32.99-1.3,1.83-2.74,3.03-3.86.05-.05.14-.02.17.04.21.54.35,1.11.43,1.68.32,2.14.07,4.37.72,6.45,1.12-1.8,1.43-3.93,2.19-5.88.04-.1.16-.08.2,0,.48.89.88,1.83,1.31,2.74.25.54.5,1.08.77,1.62-.47-2.71-.66-5.47-.7-8.21-.06-3.81.5-7.58.57-11.38,0-.31,10.99-88.31,16.05-114.02-1.06-.7-2.22-1.25-3.44-1.62-1.2-.37-2.47-.56-3.73-.52-1.24.04-2.48.31-3.61.83-.26.12-.51.25-.75.39-5.18,28.97-19.45,116.38-20.5,120.44-1.22,4.74-2.91,9.38-5.41,13.6-.38.63-.77,1.25-1.19,1.86.78-.85,1.43-1.81,2.06-2.77Z"/>
                  <path class="cls-8" d="m163.61,4.66c4.2-25.13,8.97-53.61,11.5-67.76m-15.07,89.12c1.11-6.58,2.32-13.83,3.58-21.35m9.51,29.13c-1.38,10.77-2.28,17.94-2.29,18.08-.03,1.69-.16,3.39-.28,5.05-.16,2.07-.32,4.21-.28,6.32.05,3.07.28,5.75.7,8.19l.15.88-.39-.8c-.27-.55-.53-1.1-.77-1.62-.11-.23-.21-.46-.32-.69-.31-.67-.62-1.37-.98-2.02-.26.68-.47,1.39-.68,2.08-.38,1.28-.78,2.61-1.51,3.78l-.15.24-.08-.27c-.4-1.29-.46-2.64-.52-3.95-.04-.83-.08-1.69-.2-2.52-.09-.61-.23-1.15-.42-1.63-.82.77-1.48,1.71-2.12,2.61-.28.4-.57.81-.87,1.21l-.03.04c-.36.47-.77,1-1.3,1.31-.47.27-.94.18-1.3-.23-.3-.35-.49-.78-.65-1.19-.27-.71-.46-1.45-.6-2.09-.99.51-1.64,1.44-2.18,2.27-.13.2-.26.4-.38.61-.48.77-.98,1.57-1.65,2.22-.46.45-.98.78-1.53.98l-.18.07v-.19c.06-1.1.32-2.19.57-3.24.26-1.08.53-2.2.56-3.33-1.12,1.03-1.96,2.34-2.78,3.61-.12.18-.23.36-.35.54-.61.94-1.28,1.92-2.07,2.79l-.2-.16c.43-.63.83-1.25,1.18-1.86,2.27-3.82,4.03-8.26,5.4-13.57.39-1.5,2.54-14.16,5.42-31.31m13.27,6.39c-.06.47-.12.93-.18,1.38m4.93-37.37c-1.78,13.15-3.46,25.99-4.75,35.99m1.81-95.51v-.06s.06-.03.06-.03c.27-.15.52-.28.76-.39,1.13-.51,2.36-.79,3.66-.84,1.24-.04,2.51.13,3.78.52,1.21.37,2.38.92,3.47,1.64l.07.05-.02.08c-2.24,11.4-5.7,35.46-8.84,58.55m-24.58,69.28s.04,0,.06.02c.09.04.15.14.15.24-.03,1.17-.3,2.31-.57,3.41-.24.97-.48,1.98-.55,2.99.45-.19.88-.48,1.26-.85.64-.63,1.13-1.41,1.61-2.18.13-.21.26-.41.39-.61.56-.87,1.25-1.84,2.31-2.37.06-.03.13-.03.2,0,.07.03.12.1.14.17.14.63.33,1.36.6,2.06.15.39.33.8.6,1.11.28.33.62.39.98.18.49-.28.88-.8,1.23-1.25l.03-.04c.3-.39.59-.8.87-1.2.65-.93,1.33-1.89,2.18-2.68.05-.05.13-.07.2-.05.08.02.14.07.17.14.2.51.34,1.07.44,1.71.13.84.17,1.71.21,2.55.05,1.2.11,2.44.43,3.61.62-1.08.98-2.3,1.33-3.47.21-.71.43-1.44.7-2.14.03-.09.11-.14.2-.15.1,0,.19.05.24.13.37.67.69,1.38,1,2.06.1.23.21.46.31.69.12.27.25.54.38.82-.33-2.22-.52-4.64-.56-7.36-.03-2.12.13-4.27.29-6.35.12-1.65.25-3.36.28-5.04,0-.36,11-88.26,16.04-113.96-1.05-.68-2.17-1.2-3.33-1.56-1.24-.38-2.48-.55-3.69-.51-1.27.04-2.47.32-3.56.81-.22.1-.45.22-.69.35-2.53,14.17-7.29,42.61-11.49,67.7-4.54,27.15-8.47,50.6-9,52.69-1.31,5.11-3,9.42-5.15,13.15.13-.19.25-.38.37-.56l.11.07-.11-.07c.12-.18.23-.36.35-.54.84-1.29,1.7-2.63,2.86-3.69.05-.05.11-.07.18-.06Z"/>
                </g>
                <g class="cls-10">
                  <path class="cls-9" d="m151.8,74.85c-5.56,9.63-15.77,14.95-24.4,21.39-4.41,3.29-8.61,6.99-11.61,11.65-3.52,5.47-5.11,12.21-3.37,18.58.83,3.02,2.37,5.77,4.41,8.14,2.04,2.36,4.65,4.51,7.51,5.78.1.05.28-.11.15-.18-2.49-1.45-4.74-3.12-6.64-5.3-1.87-2.15-3.39-4.64-4.33-7.34-2.15-6.22-.87-13.05,2.49-18.59,5.73-9.46,15.99-14.71,24.46-21.33,4.55-3.56,8.69-7.64,11.46-12.77.04-.08-.09-.08-.13-.02Z"/>
                  <path class="cls-9" d="m141.87,96.27c1.96-2.16,3.88-4.33,5.48-6.78,1.58-2.42,2.89-5,4.37-7.48.07-.11-.14-.11-.19-.03-1.45,2.39-2.85,4.83-4.4,7.16-1.48,2.22-3.21,4.22-5,6.19-3.38,3.72-6.76,7.4-8.8,12.05-3.61,8.2-3.93,18.19-.13,26.39,1.86,4.03,5.08,7.73,9.36,9.24.21.07.58-.24.31-.37-1.86-.95-3.59-2-5.09-3.47-1.4-1.37-2.54-2.98-3.45-4.71-1.91-3.66-2.93-7.9-3.16-12.01-.27-4.78.56-9.68,2.35-14.13,1.87-4.66,5.03-8.38,8.36-12.06Z"/>
                  <path class="cls-9" d="m165.88,124.26c.15-8.13-2.4-15.97-4.02-23.86-.91-4.45-1.64-9.12-1.21-13.67.01-.11-.17-.07-.18.01-.39,3.89-.25,7.73.38,11.59.64,3.93,1.62,7.79,2.49,11.67.86,3.83,1.62,7.71,1.83,11.64.21,3.88-.19,7.77-1.21,11.51-.56,2.04-1.33,4.03-2.39,5.87-1.12,1.94-2.58,3.46-4.26,4.93-.14.13,0,.3.16.2,3.06-1.94,5.13-5.42,6.38-8.74,1.33-3.55,1.97-7.38,2.04-11.16Z"/>
                  <path class="cls-9" d="m193.25,122.3c-.33-5.69-3.06-10.98-6.33-15.54-3.21-4.48-7.18-8.24-10.8-12.35-4-4.54-7.42-9.81-7.38-16.08,0-.09-.18-.04-.18.03-.48,11.03,9.2,18.1,15.49,25.82,3.54,4.35,6.74,9.3,8.01,14.84,1.11,4.82.42,9.87-1.54,14.38-2.15,4.94-5.9,9.22-11.16,10.88-.26.08-.27.45.04.37,4.57-1.18,8.17-4.72,10.48-8.72,2.35-4.06,3.66-8.92,3.39-13.62Z"/>
                  <path class="cls-9" d="m159.96,43.07c0-.11-.15-.07-.17.01-.88,4.2-1.35,8.47-2.24,12.67-.87,4.12-2.09,8.16-2.96,12.28-.03.16.23.1.26-.02,1.08-4.09,2.31-8.16,3.19-12.3.43-2.04.76-4.11,1.09-6.18.33-2.14.72-4.3.83-6.46Z"/>
                  <path class="cls-9" d="m162.05,45.64c.01-.1-.15-.07-.16.01-.68,5.12-1.74,10.2-2.31,15.34-.02.18.28.12.3-.02.76-5.1,1.56-10.2,2.18-15.33Z"/>
                  <path class="cls-9" d="m167.24,76.48c-.1-8.9.59-17.79,1.56-26.63,0-.09-.13-.06-.14.01-1.28,8.85-2.1,17.78-1.77,26.72,0,.19.35.07.35-.1Z"/>
                  <path class="cls-9" d="m163.25,55.84c.3-2.45.68-4.89,1.1-7.33.01-.07-.11-.05-.12,0-1.59,8.62-2.73,17.31-3.04,26.08-.09,2.51-.12,5.02-.05,7.54,0,.23.41.08.42-.12.08-8.77.64-17.47,1.7-26.17Z"/>
                  <path class="cls-9" d="m159.69,69.7c-.3,1.38-.63,2.74-.87,4.13-.03.17.26.11.28-.02.22-1.37.48-2.74.71-4.12.01-.08-.11-.05-.12,0Z"/>
                  <path class="cls-9" d="m158.66,70.04c.02-.13-.19-.08-.21.02-.14.97-.28,1.93-.41,2.9-.02.17.27.12.29-.02.12-.96.22-1.93.34-2.89Z"/>
                </g>
                <path class="cls-2" d="m176.54-58.22c.01-.09-.14-.06-.15.01-1.61,11.93-3.74,23.78-5.62,35.66-.94,5.91-1.75,11.85-2.73,17.75-.98,5.9-2.05,11.78-3.04,17.67-1.12,6.63-2.21,13.27-2.84,19.96-.01.13.2.09.22-.02,1.45-11.89,3.72-23.62,5.76-35.41,1.02-5.9,1.84-11.82,2.75-17.74.91-5.94,1.91-11.87,2.84-17.81,1.05-6.68,2.05-13.37,2.82-20.08Z"/>
                <path class="cls-2" d="m180.66-62.8c.01-.09-.14-.06-.15.01-1.61,11.93-3.74,23.78-5.62,35.66-.94,5.91-1.75,11.85-2.73,17.75-.98,5.9-2.05,11.78-3.04,17.67-1.12,6.63-2.21,13.27-2.84,19.96-.01.13.2.09.22-.02,1.45-11.89,3.72-23.62,5.76-35.41,1.02-5.9,1.84-11.82,2.75-17.74.91-5.94,1.91-11.87,2.84-17.81,1.05-6.68,2.05-13.37,2.82-20.08Z"/>
                <path class="cls-2" d="m181.4-50.41c.01-.09-.14-.06-.15.01-1.61,11.93-3.74,23.78-5.62,35.66-.94,5.91-1.75,11.85-2.73,17.75-.98,5.9-2.05,11.78-3.04,17.67-1.12,6.63-2.21,13.27-2.84,19.96-.01.13.2.09.22-.02,1.45-11.89,3.72-23.62,5.76-35.41,1.02-5.9,1.84-11.82,2.75-17.74.91-5.94,1.91-11.87,2.84-17.81,1.05-6.68,2.05-13.37,2.82-20.08Z"/>
                <path class="cls-2" d="m182.73-48.69c.01-.09-.14-.06-.15.01-1.61,11.93-3.74,23.78-5.62,35.66-.94,5.91-1.75,11.85-2.73,17.75-.98,5.9-2.05,11.78-3.04,17.67-1.12,6.63-2.21,13.27-2.84,19.96-.01.13.2.09.22-.02,1.45-11.89,3.72-23.62,5.76-35.41,1.02-5.9,1.84-11.82,2.75-17.74.91-5.94,1.91-11.87,2.84-17.81,1.05-6.68,2.05-13.37,2.82-20.08Z"/>
                <path class="cls-4" d="m170.14,63.24c-.06-3.81.5-7.58.57-11.38,0-.31,10.99-88.31,16.05-114.02-.83-.54-1.72-1-2.65-1.35-1.45,8.49-2.77,17-4.03,25.52-2.84,19.24-5.24,38.54-8.61,57.7-2.63,14.96-5.43,29.98-6.49,45.15.02-.02.04-.04.06-.06.05-.05.14-.02.17.04.21.54.35,1.11.43,1.68.32,2.14.07,4.37.72,6.45,1.12-1.8,1.43-3.93,2.19-5.88.04-.1.16-.08.2,0,.48.89.88,1.83,1.31,2.74.25.54.5,1.08.77,1.62-.47-2.71-.66-5.47-.7-8.21Z"/>
                <path class="cls-11" d="m159.13,32.15c-2.34,13.91-4.06,23.9-4.39,25.21-1.22,4.74-2.91,9.38-5.41,13.6-2.52,4.25-5.89,7.94-9.93,10.78-4.52,3.17-9.72,4.98-14.92,6.72-5.4,1.8-10.91,3.56-15.79,6.56-2.21,1.36-4.32,2.94-6,4.93-1.57,1.87-2.8,4.03-3.69,6.31-1.82,4.67-2.36,9.91-1.47,14.84.9,4.99,3.42,9.49,7.36,12.7,2.05,1.67,4.37,2.99,6.76,4.1,2.91,1.36,5.96,2.45,9.13,3.02,2.27.41,4.61.6,6.9.84.19.02.37.04.56.06.77.26,1.55.5,2.33.7,2.29.6,4.65,1,7.02,1.01,1.55,0,3.18-.17,4.62-.77,1.53.7,3.18,1.16,4.82,1.51,2.92.62,6.02.79,8.94.09.32-.08.64-.17.95-.27,1.03.57,2.21.95,3.02,1.19,12.22,3.5,19.04-.41,19.38-.32,7.21,1.79,15.77.84,21.75-3.83,2.19-1.71,3.89-3.85,5.13-6.25,4.3-8.29,3.14-19.67-2.37-26.89-2.14-2.81-4.81-5.18-7.61-7.32-5.68-4.36-12.01-7.92-17.09-13.02-2.95-2.96-5.33-6.42-6.77-10.36-1.64-4.48-2.15-9.29-2.22-14.04-.06-3.81.5-7.58.57-11.38,0-.15,2.6-20.97,5.84-45.31m-7.69-32.44c-3.29,19.55-6.95,41.54-9.73,58.03m27.63-94.31c-1.06-.7-2.22-1.25-3.44-1.62-1.2-.37-2.47-.56-3.73-.52-1.24.04-2.48.31-3.61.83-.26.12-.51.25-.75.39-1.53,8.54-3.84,22.14-6.38,37.2m9.38,19.87c3.04-22.28,6.33-45.03,8.52-56.14m-10.21,68.71c.55-4.12,1.12-8.33,1.69-12.57m-23.2,116.94c-.25,1.83-.52,3.67-.93,5.47-.34,1.48-.78,2.95-1.47,4.3-.67,1.32-1.59,2.51-2.79,3.39-1.28.94-2.8,1.44-4.4,1.43-3.13-.03-5.88-2.07-7.62-4.54-1.78-2.53-2.57-5.61-2.58-8.69-.01-3.24.74-6.46,1.93-9.46,1.07-2.68,2.51-5.26,4.39-7.47-.39.22-.78.45-1.16.69-4.08,2.56-7.49,6.03-10,10.14-2.5,4.1-4.08,8.69-5.07,13.37-.25,1.17-.44,2.35-.65,3.52-.17.92-.29,1.86-.53,2.77-.22.85-.54,1.71-1.12,2.38-.61.7-1.45,1.04-2.36,1.12-2.32.19-4.1-1.89-5.16-3.7-1.29-2.21-1.87-4.82-1.9-7.36-.07-5.24,2.07-10.29,4.81-14.68-1.51,1.07-2.81,2.41-3.91,3.9-1.07,1.46-1.96,3.05-2.68,4.71-.34.79-.68,1.61-.92,2.44-.29,1.04-.51,2.09-.67,3.16-.32,2.15-.37,4.33-.16,6.49.19,1.92.98,3.73.74,5.7,0,.06-.06.1-.12.1-.42-.02-.83-.09-1.23-.22-1.7-.55-3-1.99-3.97-3.43-1.03-1.52-1.81-3.22-2.35-4.98-.69-2.25-.96-4.62-.74-6.96.22-2.36.95-4.67,2.07-6.76,2.06-3.84,5.19-6.97,8.71-9.49,1.75-1.26,3.6-2.37,5.48-3.41,1.94-1.06,3.93-2.01,5.9-3,3.8-1.92,7.45-4.13,11.27-5.99.69-.74,1.49-1.39,2.45-1.73.07-.02.14.01.15.09.35,2.23-1.55,3.95-2.86,5.57.46-.28.88-.63,1.27-.99,1.03-.93,1.94-1.98,2.99-2.88.85-.73,1.88-1.44,3.05-1.37.05,0,.11.07.1.12-.72,2.77-3.16,4.54-4.49,6.98.85-.74,1.6-1.61,2.38-2.41.9-.93,1.81-1.86,2.85-2.63.8-.58,1.71-1.08,2.73-.97.39.04.76.21.96.57.2.37.19.84.12,1.24-.11.72-.35,1.41-.62,2.09.32-.49.63-.98.95-1.47,1.12-1.71,2.27-3.41,3.49-5.05.57-.76,1.14-1.52,1.78-2.22.41-.44.85-.89,1.38-1.19,2.64-1.5,2.41,5.19,2.4,6.31-.05,4.06-.68,8.09-.85,12.14-.09,2.13-.17,4.25-.35,6.37-.18,2.18-.42,4.35-.71,6.52Zm26.25,15.24c-.8,1.95-2.15,3.78-4.04,4.79-1.54.83-3.42.99-4.97.07-1.85-1.1-2.63-3.33-3.14-5.3-.6-2.34-.79-4.76-.93-7.17-.15-2.46-.24-4.93-.63-7.37-.2-1.25-.53-2.47-.87-3.69-.38-1.35-.78-2.7-1.15-4.05-.62-2.26-1.08-4.54-1.55-6.83-.27-1.3.37-3.65,2.01-3.95,1.53-.28,3.15,1.2,4.13,2.16.74.72,1.42,1.51,2.06,2.32.55.69,1.07,1.41,1.62,2.1,1.59,1.98,3.1,4.04,4.41,6.22,1.32,2.19,2.43,4.51,3.2,6.96.35,1.09.55,2.21.71,3.34.17,1.17.27,2.34.29,3.52.03,2.33-.25,4.71-1.14,6.88Z"/>
                <path class="cls-15" d="m203.84,107.99c-2.14-2.81-4.81-5.18-7.61-7.32-5.68-4.36-12.01-7.92-17.09-13.02-2.95-2.96-5.33-6.42-6.77-10.36-1.64-4.48-2.15-9.29-2.22-14.04-.06-3.81.5-7.58.57-11.38,0-.1,1.07-8.71,2.69-21.3-1.14,4.38-2.07,8.82-2.92,13.25-.58,2.99-1.07,6-1.39,9.03-.31,2.9-.41,5.8-.46,8.72-.08,5.43.06,10.97,1.46,16.25.66,2.5,1.73,4.74,2.94,7.01,1.11,2.08,2.25,4.21,2.58,6.58.01.1-.1.16-.18.1-4.96-3.81-6.77-10.13-8.12-16.05.05.46.09.91.13,1.37.23,2.48.38,5.01.98,7.44.56,2.31,1.67,4.57,2.8,6.65,2.2,4.05,5.03,7.73,7.68,11.5,4.49,6.4,9.34,13.64,8.11,21.87-.97,6.48-5.78,12.96-12.51,14.12-1.5.26-3.31.38-4.74-.24-1.07-.46-1.67-1.4-1.93-2.51-.46-1.98-.15-4.07-.18-6.08-.04-2.51-.25-5-.57-7.49-.62-4.85-1.89-9.52-3.49-14.13-.78-2.24-1.61-4.46-2.41-6.68.16.82.33,1.65.48,2.48.5,2.68.94,5.37,1.2,8.09.25,2.62.34,5.27.09,7.89-.23,2.43-.77,4.85-1.81,7.06-1.02,2.18-2.54,4.09-4.45,5.56-2.34,1.79-5.19,2.9-8.07,3.45-3.26.62-6.67.39-9.65-1.16-1.48-.77-2.8-1.83-3.94-3.06-1.16-1.25-2.14-2.65-2.8-4.24-1.26-2.99-1.44-6.34-1.14-9.54.27-2.88.94-5.72,1.81-8.47-.14.25-.27.51-.4.76-2.1,4.24-2.73,8.91-2.51,13.6.09,2.02.33,4.03.47,6.05.11,1.57.14,3.29-.63,4.72-.84,1.57-2.54,2.46-4.26,2.69-1.88.25-3.79-.3-5.44-1.19-1.67-.91-3.15-2.18-4.31-3.69-1.17-1.52-1.96-3.29-2.39-5.15-.84-3.6-.47-7.32-.58-10.98-.43,1.21-.73,2.46-.93,3.73-.43,2.72-.42,5.52.02,8.24.42,2.61,1.26,5.23,2.75,7.43.05.08,0,.19-.1.18-.44-.06-.88-.13-1.32-.21-3.2-.63-6.21-2.06-8.65-4.23-2.35-2.09-4.12-4.77-5.33-7.66-1.24-2.96-1.91-6.15-2.12-9.35-.17,2.29-.07,4.59.34,6.84.9,4.99,3.42,9.49,7.36,12.7,2.05,1.67,4.37,2.99,6.76,4.1,2.91,1.36,5.96,2.45,9.13,3.02,2.27.41,4.61.6,6.9.84.19.02.37.04.56.06.77.26,1.55.5,2.33.7,2.29.6,4.65,1,7.02,1.01,1.55,0,3.18-.17,4.62-.77,1.53.7,3.18,1.16,4.82,1.51,2.92.62,6.02.79,8.94.09.32-.08.64-.17.95-.27,1.03.57,2.21.95,3.02,1.19,12.22,3.5,19.04-.41,19.38-.32,7.21,1.79,15.77.84,21.75-3.83,2.19-1.71,3.89-3.85,5.13-6.25,4.3-8.29,3.14-19.67-2.37-26.89Z"/>
                <path class="cls-1" d="m203.84,107.99c-2.14-2.81-4.81-5.18-7.61-7.32-5.68-4.36-12.01-7.92-17.09-13.02-.33-.33-.65-.67-.97-1.02.61.83,1.25,1.64,1.94,2.41,1.64,1.85,3.45,3.52,5.28,5.18,1.78,1.62,3.57,3.23,5.22,4.98,1.69,1.78,3.13,3.72,4.42,5.8,2.38,3.83,4.23,7.99,4.29,12.57.03,1.95-.17,3.99-.66,5.88-.43,1.64-1.2,3.4-2.81,4.17-.06.03-.14-.02-.15-.09-.35-2.51-.59-5.04-1-7.54-.37-2.21-.9-4.39-1.76-6.47-.93-2.23-2.25-4.26-3.67-6.2-2.73-3.74-6.01-7.19-9.85-9.81.31.38.61.77.91,1.16,3.44,4.49,6.27,9.48,7.71,14.99.73,2.8,1.12,5.7,1.14,8.59.02,2.53-.35,5.07-1.22,7.46-1.74,4.77-5.47,8.37-10.02,10.51-3.45,1.62-9.18,2.93-11.54-1.1-1.61-2.74-.74-5.87-.64-8.83.1-3.18-.21-6.44-.98-9.53-.5,4.44-.3,9.04-2.36,13.14-1.6,3.18-4.2,5.95-7.38,7.58-1.57.81-3.28,1.29-5.05,1.36-1.82.07-3.61-.27-5.32-.88-3.62-1.3-6.56-3.77-9-6.7-1.28-1.55-2.29-3.22-3.14-5.04-.77-1.64-1.11-3.49-2.15-5-.35,2.76.7,5.6,1.91,8.03.49.99,1.04,1.96,1.58,2.92.53.94,1.05,1.91,1.27,2.97.2.97.06,1.93-.51,2.75-.35.5-.78.94-1.3,1.25,1.4.25,2.82.4,4.24.4,1.55,0,3.18-.17,4.62-.77,1.53.7,3.18,1.16,4.82,1.51,2.92.62,6.02.79,8.94.09.32-.08.64-.17.95-.27,1.03.57,2.21.95,3.02,1.19,12.22,3.5,19.04-.41,19.38-.32,7.21,1.79,15.77.84,21.75-3.83,2.19-1.71,3.89-3.85,5.13-6.25,4.3-8.29,3.14-19.67-2.37-26.89Z"/>
              </g>
            </g>
          </g>
          <g>
            <path class="cls-6" d="m45.14,50.02c13.17.26,24.58,2.36,35.01,8.37.77.44,1.5.95,2.25,1.41,1.66,1.02,2.2,2.57,1.42,4.25-2.4,5.16-4.88,10.28-7.48,15.34-.87,1.69-3.2,1.67-5.47.69-4.7-2.01-9.38-4.12-14.25-5.61-5.04-1.54-10.35-2.02-15.57-.68-2.02.52-4.1,1.44-5.73,2.72-2.82,2.21-2.69,5.49.08,7.8,3.54,2.95,7.89,4.19,12.2,5.47,7.94,2.34,16.06,4.14,23.5,7.97,7.39,3.8,13.35,8.95,16,17.15,3.9,12.05-.06,26.97-13.91,34.49-7.58,4.11-15.8,5.7-24.29,6.02-15.45.59-30.08-2.42-43.54-10.31-1.31-.77-2.53-1.68-3.76-2.56-1.48-1.06-2.01-2.56-1.29-4.18,2.34-5.25,4.69-10.5,7.28-15.63,1.22-2.43,3.41-2.68,5.78-.94,7.14,5.22,15.1,8.44,23.78,9.92,4.65.79,9.34,1.05,13.95-.19,1.79-.48,3.6-1.28,5.11-2.35,3.11-2.18,3.45-6.13.6-8.65-1.85-1.63-4.11-3.05-6.43-3.86-6.45-2.23-13.05-4.04-19.56-6.11-6.05-1.93-11.82-4.44-17.05-8.15-14.79-10.51-13.27-30.44-2.36-40.79,7.12-6.76,15.94-9.58,25.37-10.93,3.19-.45,6.43-.53,8.35-.68Z"/>
            <path class="cls-6" d="m394.75,145.65c-9.97-1.11-19.88-.54-29.66,1.48-6.8,1.41-13.49,3.38-20.22,5.13-9.75,2.54-19.53,5-29.7,4.67-3.89-.13-7.87-.57-11.59-1.62-8.63-2.44-11.09-10.03-5.92-17.35,4.52-6.41,10.76-10.83,17.34-14.82,13.2-8,26.52-15.83,38.73-25.34,5.12-3.99,9.9-8.39,12.3-14.65.77-2.02,1.25-4.28,1.24-6.43-.03-3.92-2.43-6.12-6.36-6.36-3.44-.21-6.73.59-9.66,2.29-5.08,2.95-9.99,6.2-15.02,9.24-5.85,3.54-12.16,5.66-19.08,5.45-3.71-.11-7.27-.97-10.41-3.1-3.64-2.47-5.18-6.19-3.82-10.41.72-2.23,1.89-4.47,3.39-6.26,5.19-6.17,12.12-9.84,19.45-12.82,11.33-4.61,23.03-7.32,35.35-6.32,5.39.44,10.61,1.58,15.52,4.01,8.16,4.04,12.54,11.58,12.08,20.64-.5,9.89-5.21,17.66-11.82,24.56-7.2,7.51-15.8,13.22-24.47,18.83-7.91,5.12-15.89,10.14-23.77,15.31-1.4.92-2.66,2.18-3.69,3.51-1.91,2.48-.83,5.09,2.27,4.95,4.52-.2,9.07-.77,13.5-1.69,9.53-1.97,18.95-4.54,28.51-6.35,8.95-1.69,18.04-2.79,27.18-1.39,2.42.37,4.86.91,7.16,1.72,2.29.81,4.05,2.39,4.29,5.06.25,2.87-1.25,4.82-3.54,6.24-2.94,1.83-6.23,1.93-9.56,1.81Z"/>
            <path class="cls-6" d="m294.84,131.11c-6.86,10.29-7.56,13.41-4.88,21.39-.5.05-.97.14-1.43.14-13.36-.08-26.71-.17-40.07-.27-.94,0-1.9-.08-2.83-.24-1.75-.3-2.63-1.43-2.7-3.16-.06-1.52-.03-3.04-.03-4.56,0-28.23,0-56.46,0-84.69,0-5.43.55-6.01,5.94-6.03,4.75-.02,9.5-.06,14.24.03,3.75.07,4.62,1.09,4.62,4.87,0,23.48.02,46.96-.03,70.44,0,1.76.61,2.1,2.18,2.09,8.23-.06,16.46-.03,24.98-.03Z"/>
            <path class="cls-6" d="m231.13,103.23c0,14.69,0,29.37,0,44.06,0,3.91-.84,4.94-4.71,5.05-5.43.16-10.87.11-16.31.04-2.54-.03-3.59-1.3-3.73-3.81-.11-2.07.41-3.81,1.46-5.68,7.25-12.89,7.34-25.73-.7-38.4-.45-.7-.8-1.61-.8-2.42-.05-14.05-.04-28.1-.04-42.16,0-.89-.02-1.78.04-2.66.16-2.1,1.23-3.39,3.33-3.42,5.88-.1,11.77-.14,17.65.03,2.88.08,3.81,1.43,3.81,4.56,0,14.94,0,29.88,0,44.81h-.01Z"/>
          </g>
        </g>
      </g>
    </g>
  </g>
</svg>