<?xml version="1.0" encoding="UTF-8"?>
<svg xmlns="http://www.w3.org/2000/svg" xmlns:xlink="http://www.w3.org/1999/xlink" viewBox="0 0 430.16 263.64">
  <defs>
    <style>
      .cls-1 {
        fill: #cdbf90;
      }

      .cls-2 {
        mix-blend-mode: screen;
      }

      .cls-2, .cls-3, .cls-4 {
        fill: #83ae3f;
      }

      .cls-5 {
        fill: #ffe600;
      }

      .cls-6 {
        isolation: isolate;
      }

      .cls-7 {
        fill: #f6edd1;
      }

      .cls-8 {
        fill: #4d6f24;
      }

      .cls-9 {
        fill: #a8a47f;
      }

      .cls-10 {
        opacity: .5;
      }

      .cls-10, .cls-11, .cls-4 {
        mix-blend-mode: multiply;
      }

      .cls-12 {
        clip-path: url(#clippath);
      }

      .cls-13 {
        fill: none;
      }

      .cls-11 {
        fill: #d6d5c8;
        opacity: .36;
      }

      .cls-14 {
        fill: #7a6c34;
      }

      .cls-15 {
        fill: #e0d5af;
      }
    </style>
    <clipPath id="clippath">
      <polygon class="cls-13" points="115.76 0 238.72 65.22 223.39 176.61 95.16 158.87 115.76 0"/>
    </clipPath>
  </defs>
  <g class="cls-6">
    <g id="Layer_2" data-name="Layer 2">
      <g id="Layer_2-2" data-name="Layer 2">
        <g>
          <g>
            <path class="cls-5" d="m64.12,218.92c-2.77-1.78-5.84-3.21-9.21-4.28-3.37-1.07-6.73-1.96-10.1-2.67-3.37-.71-6.46-1.4-9.27-2.08-2.81-.67-5.07-1.54-6.77-2.61-1.7-1.07-2.55-2.51-2.55-4.33,0-1.43.43-2.69,1.31-3.8.87-1.11,2.3-2,4.28-2.67,1.98-.67,4.59-1.01,7.84-1.01,3.64,0,7.4.53,11.28,1.6,3.88,1.07,7.8,2.67,11.76,4.81l7.25-17.46c-4.12-2.38-8.81-4.18-14.08-5.4-5.27-1.23-10.63-1.84-16.1-1.84-8.16,0-14.97,1.23-20.43,3.68-5.46,2.46-9.56,5.7-12.29,9.74-2.73,4.04-4.1,8.55-4.1,13.54,0,4.44.87,8.1,2.61,10.99,1.74,2.89,4,5.23,6.77,7.01,2.77,1.78,5.84,3.23,9.21,4.34,3.36,1.11,6.73,2.02,10.1,2.73,3.36.71,6.43,1.42,9.21,2.14,2.77.71,5.03,1.62,6.77,2.73,1.74,1.11,2.61,2.61,2.61,4.51,0,1.35-.46,2.51-1.37,3.5-.91.99-2.36,1.78-4.34,2.38-1.98.6-4.59.89-7.84.89-4.83,0-9.68-.77-14.55-2.32-4.87-1.54-9.17-3.51-12.89-5.88l-7.72,17.34c3.96,2.69,9.09,4.89,15.38,6.59,6.3,1.7,12.85,2.55,19.66,2.55,8.24,0,15.06-1.23,20.49-3.68,5.42-2.45,9.5-5.72,12.23-9.8,2.73-4.08,4.1-8.53,4.1-13.36,0-4.35-.85-7.98-2.55-10.87-1.7-2.89-3.94-5.23-6.71-7.01Z"/>
            <path class="cls-5" d="m109.52,222.46c-3.39-.88-12.91-4.09-13.71-14.86,0,0,.7-9.35,14.02-12.15,4.37-.92,21.23.5,41.91,2.82-.68-1.81-1.53-3.52-2.57-5.12-3.01-4.63-7.27-8.18-12.77-10.63-5.51-2.45-12.06-3.68-19.66-3.68h-38.01v83.15h23.52v-21.74h-10.45l10.45-10.21v10.21h14.49c7.6,0,14.15-1.25,19.66-3.74,5.5-2.5,9.76-6.04,12.77-10.63.72-1.09,1.34-2.24,1.89-3.43-22.76-.17-40.63-.21-41.54.01Z"/>
            <polygon class="cls-5" points="91.8 240.24 102.25 240.24 102.25 230.03 91.8 240.24"/>
            <path class="cls-5" d="m193.9,198.31c2.73-1.11,5.68-1.66,8.85-1.66s6.12.56,8.85,1.66c2.73,1.11,5.11,2.71,7.13,4.81,1.18,1.22,2.19,2.6,3.07,4.09,11.56,1.6,20.96,2.94,26.15,3.68-.58-2.68-1.4-5.26-2.49-7.72-2.34-5.23-5.57-9.8-9.68-13.72-4.12-3.92-8.97-6.95-14.55-9.09-5.58-2.14-11.74-3.21-18.47-3.21s-12.79,1.07-18.41,3.21c-5.62,2.14-10.51,5.17-14.67,9.09-3.13,2.95-5.73,6.28-7.81,9.97,8.3.98,16.95,2.07,25.47,3.17,1.9-1.83,4.08-3.28,6.57-4.29Z"/>
            <path class="cls-5" d="m223.47,230.15c-1.15,2.93-2.73,5.45-4.75,7.54-2.02,2.1-4.4,3.7-7.13,4.81-2.73,1.11-5.68,1.66-8.85,1.66s-6.12-.55-8.85-1.66c-2.73-1.11-5.11-2.71-7.13-4.81-2.02-2.1-3.6-4.61-4.75-7.54-.9-2.29-1.43-4.78-1.63-7.45-8.06-.08-16.11-.15-23.75-.21.23,5.45,1.31,10.51,3.35,15.15,2.3,5.23,5.52,9.8,9.68,13.72,4.16,3.92,9.05,6.95,14.67,9.09,5.62,2.14,11.76,3.21,18.41,3.21s12.89-1.07,18.47-3.21c5.58-2.14,10.43-5.15,14.55-9.03,4.12-3.88,7.34-8.45,9.68-13.72,1.94-4.38,3.03-9.12,3.36-14.19-4.18-.08-12.77-.19-23.74-.33-.22,2.5-.75,4.82-1.6,6.98Z"/>
            <path class="cls-5" d="m330.79,189.46c-4.12-3.92-8.97-6.95-14.55-9.09-5.58-2.14-11.74-3.21-18.47-3.21s-12.79,1.07-18.41,3.21c-5.63,2.14-10.51,5.17-14.67,9.09-4.16,3.92-7.39,8.49-9.68,13.72-.77,1.75-1.36,3.59-1.88,5.45,1.26-3.7,4.29-9.88,10.83-11.99,9.77-3.13,8.38-2.25,18.81-2.52,10.34-.27,33.35,7.65,41.77,15.36,8.41,7.71,6.83,12.73,6.48,15.71-1.34,6.95-19.45,18.29-40.25,18.96-14.02,1.08-14.45.28-24.97-2.55-8.54-2.29-12.6-10.33-13.83-15.25.51,3.98,1.48,7.75,3.03,11.26,2.3,5.23,5.52,9.8,9.68,13.72,4.16,3.92,9.04,6.95,14.67,9.09,5.62,2.14,11.76,3.21,18.41,3.21s12.89-1.07,18.47-3.21c5.58-2.14,10.43-5.15,14.55-9.03,4.12-3.88,7.35-8.45,9.68-13.72,2.33-5.27,3.5-11.03,3.5-17.28s-1.17-12-3.5-17.23c-2.34-5.23-5.57-9.8-9.68-13.72Z"/>
            <polygon class="cls-5" points="416.08 234.19 406.93 223.14 406.93 234.19 416.08 234.19"/>
            <polygon class="cls-5" points="364.77 206.63 373.91 217.67 373.91 206.63 364.77 206.63"/>
            <polyline class="cls-5" points="406.93 223.14 370.23 178.83 350.87 178.83 350.87 261.98 373.91 261.98 373.91 217.67 364.77 206.63 373.91 206.63 373.91 217.67 410.62 261.98 429.98 261.98 429.98 178.83 406.93 178.83 406.93 223.14"/>
          </g>
          <g class="cls-12">
            <g>
              <g>
                <path class="cls-14" d="m182.08,151.73c-2.29-2.67-5.61-3.16-8.5-4.46-.68-.31-1.68.38-1.99,1.15-1.59-.29-3.17-.57-4.79-.74-1.7-.17-3.41-.3-5.11-.4-.17-.25-.34-.51-.49-.78-.55-.96-1.98-.37-2.37.63-.15,0-.3-.01-.45-.02-.06-.08-.12-.16-.17-.25-.3-.45-.85-.39-1.34-.09-.09-.12-.19-.23-.29-.35-.04-1.43-1.74-.71-2.2.2-.06.11-.12.22-.18.33-.17,0-.33-.01-.5-.02-.1-.14-.27-.24-.47-.29,0,0,0,0,0,0,.19-.35-.24-.46-.43-.33-.23.16-.46.35-.68.54-.78-.05-1.56-.11-2.33-.21-.17-.21-.46-.3-.83-.12-.17-.03-.34-.05-.51-.08-.51-.09-1.02-.18-1.53-.25.53-.49,1.02-1.03,1.47-1.66.36-.51-.25-.68-.55-.42-.92.82-1.89,1.47-2.89,1.97-.3.01-.59.03-.89.08-1.45.21-2.88.7-4.32,1.06-.24.06-.58.25-.9.51-1.21.12-2.43.15-3.63.15-.72,0-1.64,1.36-.8,1.91,2.56,1.67,5.94,2.03,9.14,1.31-.09.1-.18.2-.26.3-.4.49-.28,1.43.34,1.45,1.5.03,3.18-.37,4.78-1.09-.14.24-.27.49-.4.73-.35.65.19,1.29.72,1.17,2.1-.48,3.93-1.68,5.47-3.38.12,2.2.76,4.17,2.97,3.44.31-.1.79-.59.88-1.07.58.86,1.22,1.65,1.94,2.32.66.61,2.5-.44,2.11-1.51,1.01.43,2.04.82,3.06,1.25.83.34,2.93-1.25,1.94-2.22.03,0,.05.02.08.03,2.28.77,4.65,1.24,7.02,1.55.61.08,1.99-1.02,1.37-1.83,1.66.64,3.33,1.24,5.03,1.71.82.22,2.33-1.27,1.51-2.23Z"/>
                <g>
                  <path class="cls-14" d="m148.18,147.91c.02-.5-.87-.63-1.36-.29-1.52,1.08-2.98,2.01-4.74,2.65-1.58.58-3.22,1-4.82,1.5-.62.19-.64,1.01.1.86,2.39-.48,5.03-.82,7.3-1.83-.53.56-1.09,1.09-1.75,1.5-.6.37-.24,1.1.39.74,2-1.14,4.13-2.38,5.41-4.37.3-.46-.1-.73-.52-.77Z"/>
                  <path class="cls-14" d="m154.15,149.32c-.21-.38-1.05-.04-1.26.29-1.23,1.91-2.57,3.42-4.28,4.92-.59.52.14,1,.67.59.89-.7,2.03-1.47,2.99-2.37-.27.83-.51,1.68-.75,2.53-.18.62.95.49,1.11.03.66-1.87,2.03-3.45,2.35-5.45.09-.57-.38-.67-.83-.55Z"/>
                  <path class="cls-14" d="m158.58,155.83c-.3-2.18-.02-4.39.39-6.54.15-.79-1.06-.49-1.28-.04-1.12,2.25-.64,4.54-.27,6.91.1.64,1.24.23,1.16-.34Z"/>
                  <path class="cls-14" d="m163.24,156.01c-1.11-1.55-1.64-3.29-2.45-5-.22-.46-1.19-.03-1.05.43.57,1.9,1.48,3.55,2.77,5.05.24.27.95-.16.73-.48Z"/>
                  <path class="cls-14" d="m171.25,156.88c-1-.86-2.02-1.71-2.91-2.69-.97-1.07-1.43-2.28-2.15-3.5-.26-.44-1.14-.13-1.17.35-.18,2.92,3.58,4.95,5.64,6.32.28.19.92-.21.6-.48Z"/>
                  <path class="cls-14" d="m178.29,157.23c-4.41-1.19-6.96-4.37-10.09-7.38-.41-.39-1.49.21-1.16.76,2.22,3.75,6.84,6.27,10.99,7.16.31.07.68-.42.26-.54Z"/>
                  <path class="cls-14" d="m182.34,156.07c-4.31-.77-7.6-3.31-11.33-5.36-.48-.26-1.42.45-.94.93,1.5,1.52,3.66,2.53,5.6,3.36,2.03.87,4.2,1.42,6.39,1.62.31.03.71-.47.27-.55Z"/>
                  <path class="cls-14" d="m173.32,156.15c-.69-1.11-1.48-2.16-2.32-3.17-.83-1-1.6-2.16-2.72-2.86-.35-.22-1.08.22-.99.65.27,1.25,1.28,2.12,2.17,2.98,1.02.98,2.09,1.89,3.01,2.97.28.32,1.1-.17.85-.56Z"/>
                  <path class="cls-14" d="m146.68,147.81c-2.29.7-4.42,1.4-6.81,1.77-1.96.3-4.06-.01-5.91.81-.12.05-.2.3-.01.31,2.3.11,4.64.08,6.91-.28,2.07-.33,4.47-.61,6.21-1.84.48-.34.13-.93-.4-.77Z"/>
                  <path class="cls-14" d="m176.41,153.51c-.81-.6-1.56-1.44-2.41-1.91-1.08-.6-2.63-.5-3.82-.59-2.7-.19-5.39-.46-8.09-.62-3.67-.23-7.31-.86-10.96-1.14.34-.45.6-.93.72-1.45.16-.72-.84-.59-1.18-.34-.6.45-1.11,1.05-1.58,1.68-1.23-.04-2.46-.02-3.7.08-.4.03-.84.63-.27.78.93.25,1.85.5,2.77.74-.09.11-.17.22-.26.32-1.08,1.27-2.09,2.59-3.11,3.91-.39.51.41.7.72.32,1.13-1.42,2.53-2.6,3.81-3.88.09-.09.19-.18.29-.28,3.62.96,7.22,1.8,11.05,2.11,2.56.21,5.13.38,7.7.45,1.39.04,2.76.05,4.13.24,1.13.16,2.19.45,3.31.66.45.08,1.49-.64.89-1.08Z"/>
                </g>
              </g>
              <g>
                <g>
                  <path class="cls-7" d="m214.98,113.89c-2.26-2.97-5.08-5.46-8.02-7.73-5.99-4.6-12.66-8.36-18.02-13.73-3.11-3.12-5.62-6.77-7.14-10.92-1.73-4.73-2.27-9.8-2.35-14.81-.06-4.01.53-7.99.6-12,0-.32,11.6-93.13,16.93-120.25-1.12-.73-2.34-1.32-3.62-1.71-1.27-.39-2.61-.59-3.94-.55-1.31.04-2.61.33-3.81.87-.27.12-.53.26-.79.41-5.46,30.55-20.51,122.74-21.62,127.02-1.28,4.99-3.07,9.89-5.71,14.34-2.66,4.48-6.21,8.38-10.48,11.37-4.77,3.35-10.25,5.25-15.73,7.08-5.69,1.9-11.51,3.75-16.66,6.91-2.34,1.44-4.55,3.1-6.32,5.2-1.66,1.97-2.95,4.25-3.89,6.65-1.92,4.92-2.49,10.45-1.55,15.65.95,5.26,3.61,10,7.76,13.4,2.16,1.76,4.61,3.15,7.13,4.33,3.07,1.44,6.29,2.58,9.63,3.18,2.39.43,4.86.63,7.28.88.2.02.39.04.59.06.81.28,1.63.52,2.46.74,2.41.63,4.9,1.06,7.4,1.07,1.63,0,3.35-.18,4.87-.81,1.61.73,3.35,1.22,5.08,1.59,3.08.66,6.35.83,9.43.1.34-.08.67-.17,1-.28,1.08.6,2.33,1.01,3.18,1.25,12.89,3.69,20.08-.43,20.44-.34,7.6,1.89,16.63.88,22.94-4.04,2.31-1.8,4.1-4.06,5.41-6.59,4.54-8.75,3.31-20.74-2.49-28.36Z"/>
                  <path class="cls-9" d="m141.96,151.29c-1.36-.18-2.78-.46-4.3-.86-.83-.22-1.66-.47-2.45-.74-.19-.02-.39-.04-.58-.06-.43-.04-.86-.09-1.3-.13-1.98-.2-4.02-.4-5.99-.75-3.11-.56-6.27-1.61-9.66-3.19-2.89-1.35-5.23-2.77-7.15-4.35-4.07-3.32-6.84-8.1-7.81-13.48-.93-5.16-.38-10.75,1.56-15.73.98-2.52,2.3-4.77,3.91-6.69,1.58-1.87,3.6-3.54,6.36-5.23,4.87-2.99,10.39-4.83,15.73-6.61l.95-.32c5.88-1.96,11.12-3.85,15.7-7.06,4.22-2.96,7.73-6.78,10.44-11.33,2.39-4.03,4.25-8.71,5.69-14.31.56-2.19,4.7-26.91,9.49-55.55,4.43-26.5,9.46-56.54,12.13-71.47v-.06s.07-.03.07-.03c.28-.16.55-.3.8-.42,1.19-.54,2.49-.84,3.86-.88,1.31-.04,2.64.14,3.98.55,1.28.39,2.51.97,3.66,1.73l.08.05-.02.09c-5.27,26.77-16.89,119.69-16.93,120.23-.03,1.78-.17,3.58-.3,5.32-.16,2.18-.34,4.44-.3,6.67.1,5.97.84,10.66,2.34,14.76,1.43,3.92,3.83,7.58,7.11,10.88,3.52,3.53,7.67,6.41,11.69,9.19,2.1,1.45,4.26,2.95,6.31,4.53,3.53,2.71,6.09,5.17,8.05,7.75,2.84,3.73,4.67,8.64,5.15,13.83.48,5.24-.46,10.46-2.65,14.68-1.38,2.65-3.21,4.88-5.45,6.64-5.86,4.58-14.69,6.14-23.04,4.07-.06,0-.27.09-.49.17-.96.36-3.19,1.21-6.55,1.55-4.18.43-8.69-.04-13.41-1.39-1.25-.36-2.31-.77-3.16-1.23-.32.1-.65.19-.96.27-2.83.67-6.03.64-9.49-.1-2.02-.43-3.63-.93-5.06-1.58-1.34.55-2.93.81-4.87.8-1.01,0-2.06-.08-3.14-.22Zm-6.69-1.86h.02c.79.28,1.61.52,2.45.74,2.7.7,5.11,1.05,7.37,1.06,1.93,0,3.51-.25,4.82-.8l.05-.02.05.02c1.42.65,3.03,1.15,5.06,1.58,3.43.73,6.58.76,9.37.1.32-.08.66-.17.99-.28l.06-.02.05.03c.84.46,1.9.88,3.15,1.24,7.32,2.1,13.98,2.04,19.8-.16.43-.16.55-.21.64-.18,8.28,2.06,17.02.52,22.82-4.02,2.21-1.73,4.02-3.93,5.38-6.55,2.17-4.18,3.09-9.34,2.62-14.53-.47-5.13-2.28-9.99-5.1-13.69h0c-1.95-2.56-4.49-5-8-7.7-2.05-1.57-4.21-3.07-6.3-4.52-4.03-2.79-8.2-5.68-11.73-9.23-3.31-3.33-5.73-7.02-7.17-10.97-1.51-4.13-2.26-8.85-2.35-14.85-.04-2.24.14-4.5.3-6.69.13-1.74.27-3.54.3-5.31,0-.37,11.6-93.08,16.92-120.18-1.1-.71-2.29-1.27-3.51-1.64-1.31-.4-2.62-.58-3.89-.54-1.34.05-2.6.33-3.76.86-.23.11-.47.23-.72.37-2.67,14.95-7.69,44.94-12.12,71.4-4.79,28.64-8.93,53.37-9.49,55.57-1.45,5.62-3.32,10.33-5.72,14.38-2.72,4.59-6.26,8.43-10.51,11.42-4.61,3.24-9.87,5.13-15.77,7.1l-.95.32c-5.32,1.77-10.83,3.61-15.68,6.58-2.73,1.68-4.73,3.33-6.29,5.18-1.59,1.89-2.89,4.11-3.86,6.61-1.92,4.93-2.47,10.47-1.55,15.58.96,5.31,3.7,10.04,7.71,13.31,1.91,1.56,4.23,2.97,7.1,4.31,3.37,1.58,6.51,2.62,9.6,3.17,1.96.35,4,.55,5.97.75.43.04.87.09,1.3.13.2.02.39.04.59.06h.02Zm53.83,3.58h0s0,0,0,0Z"/>
                </g>
                <g>
                  <path class="cls-3" d="m158.4,73.88c1.01-1.55,1.99-3.17,3.36-4.44.08-.08.19.02.19.11-.05,2.37-1.08,4.59-1.19,6.96.59-.22,1.12-.56,1.57-1.01.87-.85,1.46-1.95,2.12-2.96.62-.96,1.33-1.93,2.38-2.46.07-.04.14.02.16.09.17.74.36,1.48.63,2.2.16.43.36.87.66,1.22.33.39.76.48,1.2.22.56-.32.98-.89,1.37-1.39,1.05-1.37,1.93-2.89,3.2-4.07.05-.05.15-.02.18.05.22.57.37,1.17.46,1.78.34,2.26.08,4.61.76,6.81,1.18-1.9,1.51-4.15,2.31-6.21.04-.1.17-.08.21,0,.51.94.93,1.93,1.38,2.89.26.57.53,1.14.81,1.71-.49-2.86-.69-5.77-.74-8.66-.06-4.01.53-7.99.6-12,0-.32,11.6-93.13,16.93-120.25-1.12-.73-2.34-1.32-3.62-1.71-1.27-.39-2.61-.59-3.94-.55-1.31.04-2.61.33-3.81.87-.27.12-.53.26-.79.41-5.46,30.55-20.51,122.74-21.62,127.02-1.28,4.99-3.07,9.89-5.71,14.34-.4.67-.82,1.32-1.25,1.96.82-.89,1.51-1.91,2.17-2.92Z"/>
                  <path class="cls-8" d="m172.55,4.92c4.43-26.5,9.46-56.54,12.13-71.47m-15.9,93.99c1.17-6.94,2.44-14.58,3.77-22.52m10.03,30.72c-1.46,11.36-2.4,18.92-2.41,19.07-.03,1.78-.17,3.58-.3,5.32-.16,2.18-.34,4.44-.3,6.67.05,3.24.29,6.06.74,8.64l.16.93-.41-.85c-.28-.58-.56-1.16-.81-1.71-.11-.24-.22-.48-.33-.73-.32-.71-.66-1.44-1.03-2.13-.28.72-.5,1.47-.72,2.2-.4,1.35-.82,2.75-1.59,3.99l-.16.25-.09-.28c-.42-1.36-.49-2.79-.55-4.17-.04-.88-.08-1.78-.21-2.66-.1-.65-.24-1.21-.44-1.72-.86.81-1.56,1.8-2.24,2.76-.3.42-.6.86-.92,1.27l-.03.04c-.38.5-.81,1.06-1.37,1.39-.49.28-.99.19-1.37-.25-.32-.37-.52-.82-.68-1.25-.29-.75-.48-1.53-.64-2.2-1.04.53-1.73,1.52-2.3,2.4-.14.21-.27.43-.4.64-.51.82-1.03,1.66-1.74,2.34-.48.47-1.03.82-1.62,1.04l-.19.07v-.2c.06-1.17.34-2.31.6-3.41.28-1.14.56-2.32.59-3.51-1.18,1.09-2.07,2.47-2.93,3.8-.12.19-.25.38-.37.57-.65.99-1.35,2.03-2.18,2.94l-.21-.17c.45-.66.87-1.32,1.25-1.96,2.39-4.03,4.25-8.71,5.69-14.31.41-1.58,2.68-14.93,5.72-33.03m13.99,6.74c-.06.49-.13.98-.19,1.45m5.2-39.41c-1.88,13.87-3.65,27.41-5.01,37.96m1.91-100.73v-.06s.07-.03.07-.03c.28-.16.55-.3.8-.42,1.19-.54,2.49-.84,3.86-.88,1.31-.04,2.64.14,3.98.55,1.28.39,2.51.97,3.66,1.73l.08.05-.02.09c-2.37,12.02-6.01,37.39-9.32,61.75m-25.92,73.06s.05,0,.07.02c.1.04.16.15.16.25-.03,1.23-.32,2.43-.6,3.6-.25,1.03-.5,2.09-.58,3.15.48-.2.93-.51,1.33-.9.68-.66,1.2-1.49,1.7-2.29.13-.22.27-.43.41-.64.59-.92,1.32-1.94,2.44-2.5.06-.03.14-.03.21,0,.07.03.13.1.15.18.15.66.34,1.44.63,2.18.16.41.35.84.64,1.18.3.34.65.41,1.03.19.52-.3.93-.84,1.3-1.32l.03-.04c.31-.41.62-.84.92-1.26.69-.98,1.4-1.99,2.3-2.83.06-.05.14-.07.21-.05.08.02.15.08.18.15.21.54.36,1.13.46,1.81.13.89.18,1.8.22,2.69.06,1.26.12,2.57.45,3.81.65-1.14,1.04-2.42,1.4-3.66.22-.75.45-1.52.74-2.26.04-.09.11-.15.21-.15.1,0,.2.05.25.14.39.71.73,1.46,1.05,2.18.11.24.22.48.33.73.13.28.27.57.41.87-.35-2.34-.55-4.89-.59-7.76-.04-2.24.14-4.5.3-6.69.13-1.74.27-3.54.3-5.31,0-.37,11.6-93.08,16.92-120.18-1.1-.71-2.29-1.27-3.51-1.64-1.31-.4-2.62-.58-3.89-.54-1.34.05-2.6.33-3.76.86-.23.11-.47.23-.72.37-2.67,14.95-7.69,44.94-12.12,71.4-4.79,28.64-8.93,53.37-9.49,55.57-1.39,5.39-3.16,9.93-5.43,13.87.13-.2.26-.4.39-.59l.11.07-.11-.07c.12-.19.25-.38.37-.57.88-1.36,1.79-2.77,3.02-3.89.05-.05.12-.07.19-.06Z"/>
                </g>
                <g class="cls-10">
                  <path class="cls-9" d="m160.1,78.94c-5.86,10.15-16.63,15.77-25.73,22.56-4.65,3.47-9.08,7.37-12.24,12.28-3.71,5.76-5.39,12.88-3.55,19.6.87,3.18,2.5,6.09,4.65,8.58,2.15,2.49,4.9,4.75,7.93,6.09.11.05.29-.11.16-.19-2.63-1.53-5-3.29-7.01-5.59-1.97-2.27-3.58-4.9-4.56-7.74-2.27-6.56-.91-13.77,2.62-19.6,6.05-9.98,16.87-15.52,25.79-22.49,4.8-3.75,9.17-8.05,12.08-13.47.05-.08-.1-.08-.13-.02Z"/>
                  <path class="cls-9" d="m149.62,101.53c2.06-2.28,4.09-4.57,5.78-7.15,1.67-2.55,3.05-5.27,4.61-7.89.07-.12-.14-.12-.2-.03-1.53,2.52-3.01,5.09-4.64,7.55-1.56,2.34-3.39,4.45-5.27,6.52-3.56,3.92-7.13,7.8-9.28,12.71-3.8,8.65-4.15,19.18-.14,27.84,1.97,4.25,5.36,8.15,9.87,9.74.22.08.61-.25.32-.4-1.96-1-3.79-2.11-5.37-3.65-1.48-1.44-2.68-3.14-3.64-4.97-2.02-3.86-3.09-8.33-3.34-12.66-.29-5.05.59-10.21,2.48-14.9,1.97-4.91,5.3-8.84,8.81-12.72Z"/>
                  <path class="cls-9" d="m174.95,131.06c.16-8.57-2.53-16.84-4.24-25.16-.96-4.69-1.73-9.62-1.27-14.41.01-.11-.18-.08-.19.01-.41,4.1-.26,8.15.4,12.22.67,4.14,1.71,8.21,2.62,12.31.9,4.04,1.7,8.13,1.93,12.28.22,4.09-.2,8.19-1.28,12.14-.59,2.15-1.4,4.25-2.52,6.19-1.19,2.05-2.72,3.65-4.49,5.19-.15.13,0,.32.17.21,3.23-2.04,5.41-5.72,6.73-9.22,1.4-3.74,2.07-7.79,2.15-11.77Z"/>
                  <path class="cls-9" d="m203.81,128.98c-.35-6-3.23-11.59-6.67-16.39-3.38-4.72-7.57-8.69-11.39-13.03-4.22-4.79-7.83-10.35-7.79-16.96,0-.1-.19-.05-.19.04-.5,11.63,9.7,19.09,16.33,27.23,3.74,4.59,7.11,9.81,8.45,15.65,1.17,5.09.45,10.41-1.63,15.17-2.27,5.21-6.23,9.73-11.77,11.47-.28.09-.29.48.05.39,4.82-1.25,8.61-4.98,11.05-9.2,2.47-4.29,3.86-9.41,3.57-14.37Z"/>
                  <path class="cls-9" d="m168.7,45.42c0-.11-.16-.07-.18.01-.92,4.42-1.43,8.93-2.37,13.36-.92,4.35-2.21,8.6-3.12,12.95-.03.17.24.1.28-.02,1.14-4.32,2.44-8.6,3.37-12.97.46-2.16.8-4.34,1.15-6.52.35-2.26.76-4.53.88-6.82Z"/>
                  <path class="cls-9" d="m170.91,48.14c.01-.1-.16-.07-.17.01-.72,5.41-1.84,10.76-2.44,16.18-.02.19.29.13.32-.03.81-5.38,1.64-10.76,2.29-16.17Z"/>
                  <path class="cls-9" d="m176.38,80.66c-.11-9.39.62-18.76,1.65-28.09.01-.09-.14-.06-.15.01-1.35,9.33-2.21,18.75-1.87,28.18,0,.2.37.07.37-.11Z"/>
                  <path class="cls-9" d="m172.17,58.89c.31-2.59.72-5.16,1.16-7.73.01-.07-.11-.05-.12,0-1.68,9.09-2.88,18.26-3.21,27.5-.09,2.65-.13,5.3-.05,7.95,0,.24.44.08.44-.13.09-9.25.67-18.42,1.79-27.6Z"/>
                  <path class="cls-9" d="m168.42,73.51c-.31,1.45-.67,2.89-.92,4.36-.03.18.27.12.3-.02.24-1.45.5-2.89.75-4.34.01-.08-.12-.05-.13.01Z"/>
                  <path class="cls-9" d="m167.33,73.87c.02-.13-.21-.09-.22.02-.14,1.02-.3,2.04-.44,3.06-.03.18.28.12.3-.02.12-1.02.23-2.03.35-3.05Z"/>
                </g>
                <path class="cls-2" d="m186.19-61.4c.01-.1-.15-.06-.16.01-1.7,12.58-3.95,25.08-5.93,37.61-.99,6.24-1.85,12.49-2.88,18.72-1.03,6.22-2.16,12.42-3.21,18.64-1.18,6.99-2.33,13.99-2.99,21.05-.01.14.21.09.23-.02,1.53-12.53,3.92-24.91,6.07-37.35,1.08-6.22,1.94-12.47,2.9-18.7.96-6.27,2.01-12.52,3-18.79,1.11-7.05,2.17-14.1,2.97-21.18Z"/>
                <path class="cls-2" d="m190.53-66.23c.01-.1-.15-.06-.16.01-1.7,12.58-3.95,25.08-5.93,37.61-.99,6.24-1.85,12.49-2.88,18.72-1.03,6.22-2.16,12.42-3.21,18.64-1.18,6.99-2.33,13.99-2.99,21.05-.01.14.21.09.23-.02,1.53-12.53,3.92-24.91,6.07-37.35,1.08-6.22,1.94-12.47,2.9-18.7.96-6.27,2.01-12.52,3-18.79,1.11-7.05,2.17-14.1,2.97-21.18Z"/>
                <path class="cls-2" d="m191.31-53.16c.01-.1-.15-.06-.16.01-1.7,12.58-3.95,25.08-5.93,37.61-.99,6.24-1.85,12.49-2.88,18.72-1.03,6.22-2.16,12.42-3.21,18.64-1.18,6.99-2.33,13.99-2.99,21.05-.01.14.21.09.23-.02,1.53-12.53,3.92-24.91,6.07-37.35,1.08-6.22,1.94-12.47,2.9-18.7.96-6.27,2.01-12.52,3-18.79,1.11-7.05,2.17-14.1,2.97-21.18Z"/>
                <path class="cls-2" d="m192.71-51.36c.01-.1-.15-.06-.16.01-1.7,12.58-3.95,25.08-5.93,37.61-.99,6.24-1.85,12.49-2.88,18.72-1.03,6.22-2.16,12.42-3.21,18.64-1.18,6.99-2.33,13.99-2.99,21.05-.01.14.21.09.23-.02,1.53-12.53,3.92-24.91,6.07-37.35,1.08-6.22,1.94-12.47,2.9-18.7.96-6.27,2.01-12.52,3-18.79,1.11-7.05,2.17-14.1,2.97-21.18Z"/>
                <path class="cls-4" d="m179.44,66.7c-.06-4.01.53-7.99.6-12,0-.32,11.6-93.13,16.93-120.25-.88-.57-1.81-1.05-2.79-1.42-1.53,8.95-2.92,17.93-4.25,26.91-2.99,20.29-5.53,40.65-9.08,60.85-2.77,15.78-5.73,31.62-6.85,47.61.02-.02.04-.04.07-.06.05-.05.15-.02.18.05.22.57.37,1.17.46,1.78.34,2.26.08,4.61.76,6.81,1.18-1.9,1.51-4.15,2.31-6.21.04-.1.17-.08.21,0,.51.94.93,1.93,1.38,2.89.26.57.53,1.14.81,1.71-.49-2.86-.69-5.77-.74-8.66Z"/>
                <path class="cls-11" d="m167.83,33.91c-2.47,14.67-4.28,25.21-4.64,26.59-1.28,4.99-3.07,9.89-5.71,14.34-2.66,4.48-6.21,8.38-10.48,11.37-4.77,3.35-10.25,5.25-15.73,7.08-5.69,1.9-11.51,3.75-16.66,6.91-2.34,1.44-4.55,3.1-6.32,5.2-1.66,1.97-2.95,4.25-3.89,6.65-1.92,4.92-2.49,10.45-1.55,15.65.95,5.26,3.61,10,7.76,13.4,2.16,1.76,4.61,3.15,7.13,4.33,3.07,1.44,6.29,2.58,9.63,3.18,2.39.43,4.86.63,7.28.88.2.02.39.04.59.06.81.28,1.63.52,2.46.74,2.41.63,4.9,1.06,7.4,1.07,1.63,0,3.35-.18,4.87-.81,1.61.73,3.35,1.22,5.08,1.59,3.08.66,6.35.83,9.43.1.34-.08.67-.17,1-.28,1.08.6,2.33,1.01,3.18,1.25,12.89,3.69,20.08-.43,20.44-.34,7.6,1.89,16.63.88,22.94-4.04,2.31-1.8,4.1-4.06,5.41-6.59,4.54-8.75,3.31-20.74-2.49-28.36-2.26-2.97-5.08-5.46-8.02-7.73-5.99-4.6-12.66-8.36-18.02-13.73-3.11-3.12-5.62-6.77-7.14-10.92-1.73-4.73-2.27-9.8-2.35-14.81-.06-4.01.53-7.99.6-12,0-.16,2.74-22.12,6.16-47.78m-8.11-34.21c-3.47,20.62-7.33,43.81-10.26,61.2m29.14-99.46c-1.12-.73-2.34-1.32-3.62-1.71-1.27-.39-2.61-.59-3.94-.55-1.31.04-2.61.33-3.81.87-.27.12-.53.26-.79.41-1.61,9-4.05,23.35-6.72,39.23m9.9,20.96c3.2-23.5,6.68-47.49,8.98-59.21m-10.77,72.47c.58-4.34,1.18-8.79,1.79-13.26m-24.46,123.33c-.26,1.93-.55,3.87-.98,5.77-.35,1.56-.82,3.11-1.55,4.53-.71,1.39-1.68,2.64-2.94,3.57-1.35.99-2.96,1.52-4.64,1.51-3.3-.03-6.2-2.18-8.04-4.79-1.88-2.67-2.71-5.92-2.72-9.16-.01-3.41.78-6.82,2.03-9.98,1.12-2.83,2.65-5.55,4.63-7.88-.41.24-.82.48-1.23.73-4.3,2.7-7.9,6.36-10.54,10.69-2.64,4.32-4.3,9.17-5.34,14.1-.26,1.23-.46,2.47-.69,3.71-.18.97-.31,1.96-.56,2.92-.23.89-.57,1.8-1.18,2.51-.65.74-1.53,1.1-2.49,1.18-2.44.2-4.32-2-5.44-3.9-1.36-2.33-1.97-5.08-2-7.77-.07-5.53,2.18-10.86,5.08-15.48-1.59,1.13-2.96,2.54-4.12,4.11-1.13,1.54-2.07,3.21-2.83,4.96-.36.84-.72,1.7-.97,2.58-.31,1.09-.54,2.21-.7,3.33-.33,2.26-.39,4.57-.17,6.85.2,2.03,1.03,3.94.78,6.01,0,.07-.07.1-.13.1-.44-.02-.87-.1-1.29-.23-1.8-.58-3.16-2.1-4.19-3.62-1.08-1.61-1.91-3.4-2.48-5.25-.73-2.37-1.02-4.87-.78-7.34.24-2.49,1-4.92,2.18-7.13,2.17-4.05,5.48-7.35,9.19-10.01,1.85-1.32,3.79-2.5,5.78-3.6,2.04-1.12,4.14-2.12,6.22-3.17,4-2.03,7.85-4.35,11.89-6.32.73-.78,1.57-1.46,2.58-1.83.07-.03.15.01.16.09.37,2.35-1.64,4.16-3.01,5.88.48-.3.92-.67,1.34-1.05,1.08-.98,2.04-2.09,3.15-3.04.9-.77,1.98-1.52,3.22-1.45.06,0,.12.07.1.13-.76,2.92-3.33,4.79-4.74,7.36.9-.78,1.69-1.69,2.51-2.54.94-.98,1.91-1.96,3.01-2.77.84-.62,1.8-1.14,2.88-1.03.41.05.81.23,1.01.6.21.39.2.88.13,1.31-.11.76-.37,1.49-.65,2.2.33-.52.67-1.03,1.01-1.55,1.18-1.81,2.39-3.6,3.68-5.33.6-.8,1.2-1.61,1.88-2.34.43-.47.9-.94,1.45-1.26,2.78-1.58,2.54,5.47,2.53,6.65-.06,4.28-.72,8.53-.89,12.81-.09,2.24-.18,4.48-.37,6.72-.19,2.3-.44,4.59-.75,6.88Zm27.68,16.08c-.85,2.06-2.27,3.98-4.26,5.05-1.63.87-3.61,1.04-5.24.07-1.95-1.16-2.78-3.51-3.31-5.59-.64-2.47-.83-5.03-.98-7.56-.16-2.59-.25-5.2-.67-7.77-.21-1.32-.56-2.6-.92-3.89-.4-1.42-.82-2.85-1.21-4.27-.66-2.38-1.14-4.78-1.63-7.2-.28-1.37.39-3.85,2.12-4.16,1.61-.29,3.32,1.26,4.36,2.28.78.76,1.49,1.59,2.17,2.45.58.73,1.12,1.49,1.71,2.22,1.68,2.09,3.27,4.26,4.66,6.56,1.39,2.31,2.56,4.76,3.38,7.34.36,1.15.58,2.34.75,3.53.18,1.23.28,2.47.3,3.72.04,2.46-.26,4.97-1.2,7.26Z"/>
                <path class="cls-15" d="m214.98,113.89c-2.26-2.97-5.08-5.46-8.02-7.73-5.99-4.6-12.66-8.36-18.02-13.73-3.11-3.12-5.62-6.77-7.14-10.92-1.73-4.73-2.27-9.8-2.35-14.81-.06-4.01.53-7.99.6-12,0-.1,1.13-9.19,2.84-22.47-1.2,4.62-2.18,9.3-3.08,13.98-.61,3.16-1.12,6.33-1.47,9.53-.33,3.06-.44,6.12-.48,9.19-.09,5.72.07,11.57,1.54,17.14.7,2.64,1.82,5,3.1,7.4,1.17,2.19,2.37,4.44,2.72,6.94.01.1-.11.17-.19.11-5.23-4.01-7.14-10.68-8.56-16.92.05.48.1.96.14,1.44.24,2.62.4,5.29,1.03,7.85.59,2.44,1.76,4.81,2.95,7.01,2.32,4.28,5.31,8.15,8.1,12.13,4.74,6.74,9.85,14.39,8.56,23.07-1.02,6.83-6.1,13.67-13.19,14.89-1.58.27-3.49.4-4.99-.25-1.13-.49-1.76-1.48-2.03-2.65-.49-2.09-.16-4.3-.19-6.42-.04-2.64-.27-5.28-.6-7.9-.66-5.12-1.99-10.04-3.68-14.9-.82-2.36-1.69-4.7-2.54-7.05.17.87.34,1.74.51,2.61.53,2.83.99,5.67,1.26,8.53.26,2.76.36,5.56.09,8.32-.25,2.56-.81,5.11-1.9,7.45-1.08,2.3-2.67,4.32-4.7,5.86-2.47,1.88-5.47,3.06-8.51,3.64-3.43.65-7.04.41-10.17-1.23-1.57-.82-2.96-1.93-4.16-3.22-1.23-1.32-2.26-2.8-2.95-4.47-1.32-3.16-1.52-6.68-1.21-10.06.29-3.04.99-6.03,1.91-8.94-.14.27-.28.53-.42.81-2.21,4.47-2.88,9.4-2.65,14.34.1,2.13.35,4.25.5,6.38.11,1.66.14,3.47-.66,4.97-.88,1.65-2.68,2.6-4.49,2.84-1.99.26-4-.31-5.74-1.26-1.76-.96-3.32-2.3-4.54-3.89-1.24-1.6-2.06-3.47-2.52-5.44-.88-3.79-.5-7.72-.61-11.58-.45,1.28-.77,2.6-.98,3.93-.45,2.87-.44,5.82.02,8.69.45,2.76,1.32,5.51,2.91,7.84.06.08,0,.2-.11.19-.47-.06-.93-.14-1.39-.23-3.38-.66-6.55-2.17-9.13-4.46-2.48-2.2-4.34-5.03-5.62-8.08-1.31-3.12-2.01-6.49-2.24-9.86-.18,2.41-.07,4.85.36,7.21.95,5.26,3.61,10,7.76,13.4,2.16,1.76,4.61,3.15,7.13,4.33,3.07,1.44,6.29,2.58,9.63,3.18,2.39.43,4.86.63,7.28.88.2.02.39.04.59.06.81.28,1.63.52,2.46.74,2.41.63,4.9,1.06,7.4,1.07,1.63,0,3.35-.18,4.87-.81,1.61.73,3.35,1.22,5.08,1.59,3.08.66,6.35.83,9.43.1.34-.08.67-.17,1-.28,1.08.6,2.33,1.01,3.18,1.25,12.89,3.69,20.08-.43,20.44-.34,7.6,1.89,16.63.88,22.94-4.04,2.31-1.8,4.1-4.06,5.41-6.59,4.54-8.75,3.31-20.74-2.49-28.36Z"/>
                <path class="cls-1" d="m214.98,113.89c-2.26-2.97-5.08-5.46-8.02-7.73-5.99-4.6-12.66-8.36-18.02-13.73-.35-.35-.69-.71-1.02-1.07.64.88,1.32,1.73,2.05,2.54,1.73,1.95,3.64,3.72,5.57,5.47,1.87,1.71,3.76,3.41,5.51,5.25,1.78,1.88,3.3,3.92,4.66,6.12,2.51,4.04,4.46,8.42,4.52,13.25.03,2.06-.18,4.21-.7,6.2-.45,1.73-1.26,3.58-2.97,4.4-.07.03-.15-.02-.16-.09-.37-2.65-.62-5.31-1.05-7.95-.39-2.33-.95-4.64-1.86-6.82-.98-2.35-2.37-4.49-3.87-6.54-2.88-3.94-6.33-7.59-10.38-10.35.33.41.65.81.96,1.23,3.63,4.74,6.61,10,8.14,15.8.77,2.95,1.18,6.01,1.2,9.06.02,2.67-.37,5.35-1.29,7.87-1.84,5.03-5.77,8.83-10.57,11.08-3.64,1.71-9.68,3.09-12.17-1.16-1.69-2.89-.78-6.19-.68-9.32.11-3.35-.22-6.79-1.04-10.05-.53,4.69-.32,9.53-2.49,13.86-1.69,3.36-4.43,6.27-7.79,7.99-1.66.85-3.46,1.36-5.32,1.43-1.91.07-3.81-.28-5.61-.93-3.82-1.37-6.92-3.97-9.49-7.06-1.35-1.63-2.42-3.4-3.31-5.32-.81-1.73-1.17-3.69-2.27-5.27-.37,2.91.74,5.9,2.02,8.47.52,1.05,1.1,2.06,1.67,3.08.56.99,1.11,2.01,1.34,3.13.21,1.02.06,2.03-.54,2.9-.37.53-.82.99-1.37,1.32,1.48.26,2.97.42,4.47.42,1.63,0,3.35-.18,4.87-.81,1.61.73,3.35,1.22,5.08,1.59,3.08.66,6.35.83,9.43.1.34-.08.67-.17,1-.28,1.08.6,2.33,1.01,3.18,1.25,12.89,3.69,20.08-.43,20.44-.34,7.6,1.89,16.63.88,22.94-4.04,2.31-1.8,4.1-4.06,5.41-6.59,4.54-8.75,3.31-20.74-2.49-28.36Z"/>
              </g>
            </g>
          </g>
          <g>
            <path class="cls-5" d="m47.61,52.75c13.89.27,25.92,2.49,36.93,8.83.81.47,1.58,1,2.37,1.49,1.75,1.08,2.32,2.71,1.5,4.48-2.53,5.44-5.15,10.84-7.89,16.18-.92,1.78-3.37,1.76-5.77.73-4.95-2.12-9.9-4.35-15.03-5.92-5.32-1.63-10.92-2.13-16.42-.72-2.13.55-4.33,1.52-6.04,2.87-2.97,2.33-2.83,5.79.09,8.23,3.73,3.11,8.32,4.42,12.87,5.76,8.37,2.47,16.94,4.37,24.78,8.4,7.79,4.01,14.08,9.44,16.88,18.09,4.11,12.71-.07,28.45-14.67,36.38-7.99,4.34-16.66,6.01-25.62,6.35-16.29.63-31.73-2.55-45.92-10.87-1.38-.81-2.67-1.77-3.97-2.7-1.56-1.11-2.12-2.7-1.36-4.41,2.47-5.54,4.95-11.07,7.67-16.48,1.29-2.56,3.59-2.83,6.1-1,7.53,5.5,15.92,8.9,25.08,10.47,4.9.84,9.85,1.11,14.71-.2,1.89-.51,3.8-1.35,5.39-2.47,3.28-2.3,3.64-6.47.63-9.13-1.95-1.72-4.33-3.22-6.78-4.07-6.8-2.35-13.76-4.26-20.62-6.44-6.38-2.03-12.47-4.68-17.98-8.6-15.6-11.08-14-32.1-2.49-43.02,7.51-7.13,16.81-10.11,26.76-11.52,3.36-.48,6.78-.56,8.81-.72Z"/>
            <path class="cls-5" d="m416.32,153.61c-10.51-1.17-20.97-.57-31.28,1.56-7.18,1.49-14.23,3.56-21.33,5.41-10.28,2.68-20.6,5.28-31.33,4.92-4.1-.13-8.3-.6-12.23-1.71-9.11-2.57-11.69-10.57-6.25-18.3,4.77-6.76,11.35-11.42,18.28-15.63,13.92-8.44,27.97-16.7,40.84-26.73,5.4-4.21,10.44-8.85,12.97-15.45.82-2.13,1.32-4.52,1.31-6.79-.03-4.13-2.56-6.46-6.71-6.7-3.63-.22-7.1.62-10.19,2.41-5.36,3.11-10.54,6.54-15.84,9.75-6.17,3.73-12.83,5.97-20.12,5.74-3.92-.12-7.67-1.02-10.98-3.27-3.84-2.6-5.46-6.53-4.03-10.98.76-2.35,1.99-4.72,3.58-6.6,5.47-6.5,12.78-10.38,20.51-13.52,11.95-4.87,24.28-7.72,37.28-6.67,5.68.46,11.19,1.66,16.37,4.23,8.6,4.26,13.22,12.21,12.74,21.77-.52,10.43-5.5,18.63-12.47,25.9-7.6,7.92-16.66,13.94-25.81,19.86-8.34,5.4-16.76,10.7-25.07,16.14-1.48.97-2.81,2.29-3.89,3.7-2.02,2.61-.87,5.37,2.39,5.22,4.77-.21,9.56-.81,14.23-1.78,10.05-2.08,19.98-4.79,30.07-6.69,9.44-1.79,19.02-2.94,28.67-1.47,2.56.39,5.12.96,7.55,1.82,2.42.85,4.28,2.52,4.52,5.34.27,3.03-1.32,5.09-3.73,6.59-3.1,1.92-6.57,2.03-10.08,1.9Z"/>
            <path class="cls-5" d="m310.96,138.28c-7.23,10.85-7.98,14.15-5.15,22.56-.53.05-1.02.15-1.51.15-14.09-.09-28.17-.18-42.26-.28-1,0-2-.08-2.98-.25-1.84-.31-2.77-1.51-2.84-3.33-.06-1.6-.03-3.2-.03-4.81,0-29.77,0-59.54,0-89.32,0-5.72.58-6.34,6.26-6.36,5.01-.02,10.02-.06,15.02.04,3.95.08,4.87,1.15,4.87,5.14,0,24.76.03,49.53-.04,74.29,0,1.86.64,2.22,2.3,2.2,8.68-.06,17.36-.03,26.34-.03Z"/>
            <path class="cls-5" d="m243.76,108.87c0,15.49,0,30.98,0,46.46,0,4.12-.89,5.21-4.96,5.33-5.73.16-11.47.12-17.2.04-2.67-.04-3.79-1.37-3.93-4.02-.12-2.18.43-4.02,1.54-6,7.65-13.59,7.74-27.14-.74-40.49-.47-.74-.84-1.7-.84-2.55-.05-14.82-.04-29.64-.04-44.46,0-.93-.03-1.87.04-2.8.17-2.22,1.3-3.57,3.51-3.61,6.21-.1,12.42-.15,18.62.03,3.03.09,4.01,1.51,4.01,4.81,0,15.75,0,31.51,0,47.26h-.01Z"/>
          </g>
        </g>
      </g>
    </g>
  </g>
</svg>